<svg xmlns="http://www.w3.org/2000/svg" width="16" height="16" viewBox="0 0 16 16">
    <g fill="#7D7D7D">
        <path d="M7.05 0C3.164 0 0 3.163 0 7.05c0 3.889 3.163 7.052 7.05 7.052 3.889 0 7.052-3.163 7.052-7.051C14.102 3.163 10.939 0 7.05 0zm0 12.8c-3.17 0-5.748-2.58-5.748-5.75S3.88 1.303 7.05 1.303c3.17 0 5.749 2.579 5.749 5.749 0 3.17-2.58 5.749-5.75 5.749z"/>
        <path d="M15.81 14.893l-3.72-3.72c-.253-.253-.663-.253-.917 0-.253.253-.253.664 0 .917l3.72 3.72c.126.127.292.19.458.19.166 0 .332-.063.459-.19.253-.253.253-.664 0-.917z"/>
    </g>
</svg>
